<svg width="16" height="16" viewBox="0 0 16 16" fill="none" xmlns="http://www.w3.org/2000/svg">
<g clip-path="url(#clip0_406_333)">
<path d="M15.8074 13.8075V8.86144C15.8074 6.43061 15.2841 4.57373 12.4482 4.57373C11.0808 4.57373 10.1693 5.31648 9.79788 6.02547H9.76412V4.79318H7.08008V13.8075H9.88228V9.3341C9.88228 8.15245 10.1017 7.02144 11.5535 7.02144C12.9883 7.02144 13.0052 8.35502 13.0052 9.40162V13.7906H15.8074V13.8075Z" fill="white"/>
<path d="M2.52148 4.79297H5.32369V13.8073H2.52148V4.79297Z" fill="white"/>
<path d="M3.92328 0.302734C3.02861 0.302734 2.30273 1.02861 2.30273 1.92328C2.30273 2.81796 3.02861 3.56072 3.92328 3.56072C4.81796 3.56072 5.54384 2.81796 5.54384 1.92328C5.54384 1.02861 4.81796 0.302734 3.92328 0.302734Z" fill="white"/>
</g>
<defs>
<clipPath id="clip0_406_333">
<rect width="16" height="16" fill="white"/>
</clipPath>
</defs>
</svg>
