<svg width="16" height="16" viewBox="0 0 16 16" fill="none" xmlns="http://www.w3.org/2000/svg">
<g clip-path="url(#clip0_406_340)">
<path d="M12.1641 10.5843C11.6414 10.0683 10.9888 10.0683 10.4694 10.5843C10.0732 10.9772 9.67699 11.3701 9.28744 11.7696C9.1809 11.8795 9.091 11.9028 8.96115 11.8295C8.70479 11.6897 8.43177 11.5765 8.18539 11.4233C7.03673 10.7008 6.07452 9.77193 5.22218 8.72649C4.79934 8.20709 4.42312 7.65107 4.16009 7.02514C4.10682 6.89862 4.11681 6.81538 4.22002 6.71217C4.61622 6.32928 5.00244 5.93641 5.39199 5.54353C5.93469 4.9975 5.93469 4.35825 5.38866 3.80889C5.07902 3.49592 4.76938 3.18961 4.45974 2.87664C4.14011 2.55702 3.82381 2.23406 3.50086 1.91776C2.97813 1.40836 2.32556 1.40836 1.80617 1.92109C1.40663 2.31397 1.02375 2.71683 0.617555 3.10305C0.241327 3.4593 0.0515486 3.89546 0.0115952 4.40486C-0.0516643 5.23389 0.151432 6.01631 0.437765 6.77876C1.02375 8.35692 1.91604 9.75862 2.99811 11.0438C4.45974 12.7818 6.20437 14.1568 8.24532 15.149C9.16425 15.5951 10.1165 15.9381 11.1519 15.9947C11.8644 16.0346 12.4837 15.8548 12.9798 15.2988C13.3194 14.9193 13.7023 14.573 14.0619 14.2101C14.5946 13.6707 14.5979 13.0181 14.0685 12.4854C13.4359 11.8495 12.8 11.2169 12.1641 10.5843ZM11.5282 7.93075L12.7567 7.72099C12.5636 6.59231 12.0309 5.57017 11.2219 4.75778C10.3662 3.90211 9.28411 3.36274 8.09217 3.19627L7.91904 4.4315C8.8413 4.56135 9.68032 4.97753 10.3429 5.64009C10.9688 6.26602 11.3783 7.05843 11.5282 7.93075ZM13.4493 2.59031C12.0309 1.17197 10.2363 0.276344 8.25531 0L8.08218 1.23523C9.79352 1.47495 11.345 2.25071 12.5703 3.47262C13.7323 4.63459 14.4947 6.10288 14.771 7.71766L15.9996 7.50791C15.6767 5.63676 14.7944 3.93874 13.4493 2.59031Z" fill="white"/>
</g>
<defs>
<clipPath id="clip0_406_340">
<rect width="16" height="16" fill="white"/>
</clipPath>
</defs>
</svg>
