<svg width="59" height="61" viewBox="0 0 59 61" fill="none" xmlns="http://www.w3.org/2000/svg">
<path fill-rule="evenodd" clip-rule="evenodd" d="M8.05227 11.7501L29.5011 2.73648L50.9499 11.7501V36.7492C50.9499 43.996 41.5999 54.9341 29.5011 58.3077C17.4027 54.9342 8.05227 43.9961 8.05227 36.7494V11.7501ZM29.2624 60.1661C29.4188 60.2077 29.5833 60.2077 29.7397 60.1661C35.8159 58.5268 41.6412 54.9886 46.1409 50.2015C50.3063 45.7718 52.7932 40.7424 52.7932 36.7494V11.1318C52.7932 10.9487 52.7394 10.7697 52.6386 10.6174C52.5379 10.465 52.3946 10.346 52.2268 10.2754L29.856 0.874358C29.7436 0.826921 29.6229 0.80249 29.5011 0.80249C29.3792 0.80249 29.2586 0.826921 29.1462 0.874358L6.77594 10.2754C6.60805 10.3459 6.46464 10.4649 6.36375 10.6172C6.26286 10.7696 6.20901 10.9487 6.20898 11.1318V36.7494C6.20898 40.7424 8.69586 45.7718 12.8612 50.2015C17.3609 54.9884 23.1862 58.5267 29.2624 60.1663V60.1661ZM29.5011 25.4374C28.5065 25.4375 27.5342 25.7344 26.7072 26.2908C25.8802 26.8471 25.2357 27.6378 24.8551 28.5629C24.4745 29.4879 24.375 30.5058 24.569 31.4879C24.7631 32.4699 25.2421 33.372 25.9454 34.0799C26.6488 34.7879 27.5448 35.2701 28.5204 35.4654C29.4959 35.6607 30.507 35.5604 31.4259 35.1772C32.3448 34.794 33.1302 34.1451 33.6828 33.3125C34.2354 32.48 34.5303 31.5012 34.5303 30.4999C34.5289 29.1576 33.9986 27.8707 33.0557 26.9216C32.1128 25.9725 30.8344 25.4387 29.5011 25.4374ZM29.5011 37.4186C30.8604 37.4187 32.1892 37.0129 33.3194 36.2528C34.4497 35.4926 35.3306 34.412 35.8509 33.1478C36.3711 31.8836 36.5072 30.4925 36.2421 29.1504C35.977 27.8082 35.3224 26.5754 34.3613 25.6078C33.4001 24.6402 32.1755 23.9812 30.8423 23.7142C29.5092 23.4472 28.1273 23.5842 26.8714 24.1079C25.6156 24.6315 24.5422 25.5183 23.787 26.6561C23.0318 27.7938 22.6287 29.1315 22.6287 30.4999C22.6305 32.3342 23.3551 34.0929 24.6436 35.39C25.932 36.6871 27.6789 37.4167 29.5011 37.4186ZM16.9266 28.783V32.2168C16.9252 32.249 16.9356 32.2807 16.9559 32.3057C16.9761 32.3307 17.0048 32.3474 17.0364 32.3525L19.931 32.9523C20.0863 32.9846 20.2308 33.0567 20.3505 33.1616C20.4701 33.2664 20.561 33.4005 20.6142 33.551C20.7452 33.9217 20.8988 34.2839 21.0741 34.6355C21.1472 34.7812 21.1808 34.9438 21.1714 35.1068C21.162 35.2697 21.1101 35.4273 21.0208 35.5635L19.3857 38.0635C19.3672 38.0895 19.3588 38.1214 19.3622 38.1532C19.3656 38.185 19.3806 38.2145 19.4042 38.2359L21.8161 40.6638C21.8375 40.6876 21.8668 40.7027 21.8984 40.7061C21.9301 40.7095 21.9619 40.7011 21.9878 40.6824L24.5273 38.9992C24.6602 38.9112 24.8134 38.8593 24.9721 38.8486C25.1308 38.8378 25.2896 38.8686 25.433 38.9379C25.7613 39.0961 26.0985 39.2348 26.443 39.3532C26.5947 39.4054 26.7302 39.4967 26.836 39.618C26.9418 39.7392 27.0143 39.8862 27.0462 40.0444L27.6611 43.048C27.6663 43.0797 27.6829 43.1085 27.7077 43.1288C27.7325 43.149 27.7639 43.1594 27.7958 43.158H31.2068C31.2387 43.1593 31.27 43.1488 31.2948 43.1286C31.3196 43.1084 31.3363 43.0797 31.3416 43.048L31.9558 40.0444C31.9878 39.8862 32.0603 39.7392 32.1662 39.618C32.2721 39.4967 32.4076 39.4054 32.5593 39.3532C32.9037 39.2348 33.2409 39.0961 33.5692 38.9379C33.7125 38.8685 33.8713 38.8376 34.03 38.8483C34.1888 38.8591 34.342 38.911 34.4748 38.9992L37.0144 40.6824C37.0403 40.7011 37.0721 40.7095 37.1038 40.7061C37.1355 40.7027 37.1648 40.6876 37.1862 40.6638L39.5979 38.2359C39.6216 38.2145 39.6365 38.185 39.64 38.1532C39.6434 38.1214 39.635 38.0895 39.6165 38.0635L37.9801 35.5622C37.8911 35.4258 37.8393 35.2682 37.83 35.1053C37.8206 34.9424 37.8541 34.7799 37.9269 34.6341C38.1031 34.2831 38.2571 33.9213 38.3878 33.5507C38.441 33.4002 38.5318 33.2661 38.6515 33.1612C38.7712 33.0563 38.9158 32.9843 39.0712 32.952L41.9656 32.3523C41.9973 32.3471 42.0259 32.3305 42.0462 32.3054C42.0664 32.2804 42.0768 32.2488 42.0755 32.2166V28.783C42.0767 28.7508 42.0663 28.7192 42.0461 28.6942C42.0258 28.6692 41.9972 28.6525 41.9656 28.6473L39.1635 28.0661C39.0041 28.0328 38.8563 27.9577 38.7351 27.8483C38.6139 27.7389 38.5235 27.5993 38.4732 27.4434C38.34 27.0323 38.1794 26.6307 37.9927 26.2412C37.9234 26.0967 37.8925 25.9365 37.903 25.7764C37.9134 25.6162 37.965 25.4615 38.0525 25.3274L39.6165 22.9364C39.635 22.9103 39.6434 22.8783 39.64 22.8464C39.6366 22.8145 39.6216 22.785 39.5979 22.7635L37.1862 20.3349C37.1647 20.3112 37.1354 20.2963 37.1037 20.2929C37.072 20.2896 37.0402 20.2981 37.0144 20.3169L34.6949 21.8535C34.559 21.9437 34.4017 21.9962 34.2391 22.0054C34.0765 22.0146 33.9144 21.9803 33.7692 21.906C33.3625 21.6975 32.9412 21.5191 32.5087 21.3724C32.3558 21.3206 32.2191 21.2294 32.1122 21.1078C32.0053 20.9863 31.9319 20.8386 31.8993 20.6796L31.3416 17.9512C31.3363 17.9194 31.3196 17.8908 31.2948 17.8705C31.27 17.8503 31.2387 17.8399 31.2068 17.8412H27.7956C27.7637 17.8397 27.7323 17.8501 27.7075 17.8704C27.6826 17.8906 27.6661 17.9194 27.6609 17.9512L27.1026 20.6796C27.0703 20.8387 26.997 20.9865 26.89 21.1081C26.7831 21.2297 26.6462 21.3208 26.4932 21.3724C26.0605 21.5195 25.6389 21.6978 25.2316 21.906C25.0867 21.9803 24.9247 22.0146 24.7623 22.0053C24.5999 21.9961 24.4428 21.9437 24.307 21.8535L21.9878 20.3172C21.962 20.2984 21.9302 20.2899 21.8985 20.2933C21.8668 20.2966 21.8375 20.3116 21.8161 20.3353L19.4042 22.7639C19.3806 22.7854 19.3656 22.8148 19.3622 22.8467C19.3588 22.8786 19.3671 22.9106 19.3857 22.9367L20.9495 25.3275C21.0375 25.4617 21.0892 25.6166 21.0997 25.777C21.1102 25.9374 21.0791 26.0978 21.0093 26.2424C20.8228 26.6316 20.6623 27.0328 20.5288 27.4435C20.4789 27.5996 20.3887 27.7395 20.2674 27.8489C20.1461 27.9583 19.9981 28.0333 19.8386 28.0662L17.0364 28.6474C17.0048 28.6527 16.9762 28.6694 16.956 28.6944C16.9357 28.7194 16.9253 28.7509 16.9266 28.7832V28.783ZM16.6641 34.1703L19.0644 34.6682C19.1068 34.7722 19.1509 34.8754 19.1966 34.978L17.8463 37.0426C17.5924 37.4248 17.4789 37.884 17.5251 38.3414C17.5714 38.7987 17.7746 39.2256 18.0998 39.5483L20.5128 41.9775C20.8332 42.305 21.257 42.5097 21.7113 42.5563C22.1656 42.6029 22.6218 42.4885 23.0012 42.2327L25.1185 40.8307C25.1935 40.8619 25.2683 40.8931 25.343 40.9235L25.8549 43.4236C25.9444 43.8745 26.187 44.2799 26.5411 44.5703C26.8953 44.8607 27.3388 45.0179 27.7955 45.0149H31.2064C31.6631 45.0178 32.1066 44.8606 32.4607 44.5702C32.8148 44.2799 33.0575 43.8745 33.147 43.4236L33.6585 40.9235C33.7335 40.8933 33.8083 40.8621 33.883 40.8307L36.0003 42.2325C36.3799 42.488 36.8361 42.6023 37.2904 42.5557C37.7447 42.5091 38.1687 42.3046 38.4894 41.9773L40.9025 39.5483C41.2279 39.2257 41.4313 38.7989 41.4776 38.3414C41.5238 37.884 41.4101 37.4247 41.156 37.0426L39.8057 34.9777C39.8518 34.8742 39.8954 34.771 39.9367 34.668L42.3382 34.1701C42.7861 34.0802 43.189 33.836 43.4775 33.4795C43.766 33.1231 43.9222 32.6766 43.9193 32.2168V28.783C43.9223 28.3232 43.7661 27.8766 43.4776 27.5201C43.189 27.1636 42.7861 26.9194 42.3381 26.8295L40.0464 26.355C39.9917 26.2087 39.9335 26.0636 39.8719 25.92L41.1559 23.9572C41.4097 23.5751 41.5233 23.1158 41.477 22.6584C41.4307 22.2011 41.2275 21.7743 40.9024 21.4515L38.4894 19.0226C38.1687 18.6954 37.7447 18.4909 37.2904 18.4443C36.8362 18.3977 36.3799 18.512 36.0003 18.7674L34.1158 20.0172C33.9462 19.9397 33.7745 19.8669 33.601 19.7989L33.1471 17.5783C33.0579 17.1272 32.8154 16.7214 32.4613 16.4308C32.1071 16.1402 31.6634 15.9829 31.2065 15.9859H27.7956C27.3389 15.9828 26.8953 16.1399 26.5411 16.4303C26.187 16.7207 25.9444 17.1262 25.8551 17.5772L25.4013 19.7989C25.2276 19.867 25.0557 19.9398 24.8859 20.0172L23.0019 18.767C22.6224 18.5114 22.1663 18.397 21.712 18.4436C21.2578 18.4901 20.8339 18.6948 20.5135 19.0222L18.0997 21.4515C17.7747 21.7744 17.5717 22.2012 17.5254 22.6585C17.4792 23.1158 17.5926 23.575 17.8462 23.9572L19.13 25.9201C19.0689 26.0639 19.0107 26.209 18.9555 26.3552L16.6639 26.8296C16.2158 26.9195 15.8129 27.1637 15.5244 27.5202C15.2358 27.8767 15.0796 28.3233 15.0826 28.7832V32.2169C15.0796 32.6768 15.2359 33.1233 15.5244 33.4799C15.813 33.8364 16.216 34.0805 16.664 34.1704L16.6641 34.1703Z" fill="#DABA68" stroke="#DABA68" stroke-width="0.4"/>
</svg>
