<svg width="72" height="72" viewBox="0 0 72 72" fill="none" xmlns="http://www.w3.org/2000/svg">
<path d="M54.3756 44.901H51C50.7762 44.901 50.5616 44.8121 50.4034 44.6539C50.2451 44.4956 50.1562 44.281 50.1562 44.0573C50.1562 43.8335 50.2451 43.6189 50.4034 43.4606C50.5616 43.3024 50.7762 43.2135 51 43.2135H54.3756C60.3206 43.2135 65.157 38.3766 65.157 32.4315C65.157 27.0321 61.1194 22.4404 55.7649 21.7502C55.5624 21.724 55.3762 21.6253 55.2409 21.4723C55.1056 21.3194 55.0304 21.1225 55.0292 20.9183C54.9887 13.3616 48.8068 7.21406 41.2502 7.21406C35.4311 7.21406 30.2117 10.8979 28.2637 16.38C28.2253 16.4878 28.1654 16.5867 28.0876 16.6706C28.0098 16.7545 27.9158 16.8218 27.8112 16.8683C27.7066 16.9148 27.5937 16.9396 27.4793 16.9411C27.3648 16.9427 27.2513 16.9209 27.1455 16.8773C26.0892 16.4383 24.9565 16.2129 23.8127 16.2141C19.005 16.2141 15.0939 20.1251 15.0939 24.9328C15.1198 25.1524 15.0585 25.3734 14.9231 25.5483C14.7877 25.7231 14.5891 25.8378 14.37 25.8677C10.0792 26.4561 6.84375 30.1652 6.84375 34.4953C6.84375 39.303 10.7548 43.2141 15.5625 43.2141H21.0007C21.2245 43.2141 21.4391 43.303 21.5974 43.4612C21.7556 43.6194 21.8445 43.834 21.8445 44.0578C21.8445 44.2816 21.7556 44.4962 21.5974 44.6544C21.4391 44.8127 21.2245 44.9016 21.0007 44.9016H15.5625C9.82444 44.9016 5.15625 40.2334 5.15625 34.4953C5.15625 29.5701 8.66287 25.3181 13.4244 24.3197C13.7428 18.8663 18.2805 14.5266 23.8127 14.5266C24.8961 14.5266 25.9581 14.6925 26.9807 15.0204C29.3736 9.30769 35.0042 5.526 41.2502 5.526C49.4919 5.526 56.2757 12.0398 56.6959 20.1898C62.5301 21.2889 66.8445 26.4291 66.8445 32.4315C66.8445 39.3075 61.251 44.901 54.3756 44.901Z" fill="#DABA68" stroke="#DABA68" stroke-width="0.3"/>
<path d="M36.1664 52.4916H33.3646C33.2006 52.4916 33.0434 52.4264 32.9275 52.3105C32.8116 52.1946 32.7464 52.0374 32.7464 51.8734C32.7464 51.7095 32.8116 51.5522 32.9275 51.4363C33.0434 51.3204 33.2006 51.2553 33.3646 51.2553H36.1664C36.9325 51.2553 37.5556 50.6322 37.5556 49.8669C37.5556 49.1017 36.9325 48.4786 36.1664 48.4786H33.0732C32.9093 48.4786 32.7521 48.4135 32.6361 48.2975C32.5202 48.1816 32.4551 48.0244 32.4551 47.8604C32.4551 47.6965 32.5202 47.5393 32.6361 47.4234C32.7521 47.3074 32.9093 47.2423 33.0732 47.2423H36.1664C37.6141 47.2423 38.7918 48.4197 38.7918 49.8669C38.7918 51.3142 37.6141 52.4916 36.1664 52.4916Z" fill="#DABA68" stroke="#DABA68" stroke-width="0.219783"/>
<path d="M36.6684 56.5045H33.3642C33.2003 56.5045 33.0431 56.4394 32.9271 56.3234C32.8112 56.2075 32.7461 56.0503 32.7461 55.8864C32.7461 55.7224 32.8112 55.5652 32.9271 55.4493C33.0431 55.3333 33.2003 55.2682 33.3642 55.2682H36.6684C37.4341 55.2682 38.0567 54.6451 38.0567 53.8799C38.0567 53.1146 37.4341 52.4915 36.6684 52.4915H34.6166C34.4526 52.4915 34.2954 52.4264 34.1795 52.3105C34.0636 52.1946 33.9984 52.0373 33.9984 51.8734C33.9984 51.7094 34.0636 51.5522 34.1795 51.4363C34.2954 51.3204 34.4526 51.2552 34.6166 51.2552H36.6684C38.1157 51.2552 39.293 52.4326 39.293 53.8799C39.293 55.3271 38.1153 56.5045 36.6684 56.5045Z" fill="#DABA68" stroke="#DABA68" stroke-width="0.219783"/>
<path d="M34.3095 56.3913C34.1456 56.3913 33.9884 56.3262 33.8725 56.2102C33.7565 56.0943 33.6914 55.9371 33.6914 55.7732V47.8601C33.6914 47.6962 33.7565 47.539 33.8725 47.423C33.9884 47.3071 34.1456 47.242 34.3095 47.242C34.4735 47.242 34.6307 47.3071 34.7466 47.423C34.8626 47.539 34.9277 47.6962 34.9277 47.8601V55.7727C34.9277 55.854 34.9118 55.9344 34.8808 56.0094C34.8497 56.0845 34.8042 56.1527 34.7468 56.2101C34.6894 56.2675 34.6212 56.3131 34.5462 56.3442C34.4712 56.3753 34.3908 56.3913 34.3095 56.3913ZM36.5245 48.4783C36.3606 48.4783 36.2034 48.4132 36.0875 48.2972C35.9715 48.1813 35.9064 48.0241 35.9064 47.8601V46.9387C35.9064 46.7748 35.9715 46.6175 36.0875 46.5016C36.2034 46.3857 36.3606 46.3206 36.5245 46.3206C36.6885 46.3206 36.8457 46.3857 36.9616 46.5016C37.0776 46.6175 37.1427 46.7748 37.1427 46.9387V47.8601C37.1427 48.0241 37.0776 48.1813 36.9616 48.2972C36.8457 48.4132 36.6885 48.4783 36.5245 48.4783Z" fill="#DABA68" stroke="#DABA68" stroke-width="0.219783"/>
<path d="M34.5908 48.4783C34.4269 48.4783 34.2696 48.4132 34.1537 48.2972C34.0378 48.1813 33.9727 48.0241 33.9727 47.8601V46.9387C33.9727 46.7748 34.0378 46.6175 34.1537 46.5016C34.2696 46.3857 34.4269 46.3206 34.5908 46.3206C34.7547 46.3206 34.912 46.3857 35.0279 46.5016C35.1438 46.6175 35.2089 46.7748 35.2089 46.9387V47.8601C35.2089 48.0241 35.1438 48.1813 35.0279 48.2972C34.912 48.4132 34.7547 48.4783 34.5908 48.4783ZM36.5231 57.4261C36.3592 57.4261 36.2019 57.3609 36.086 57.245C35.9701 57.1291 35.905 56.9719 35.905 56.8079V55.8865C35.905 55.7225 35.9701 55.5653 36.086 55.4494C36.2019 55.3335 36.3592 55.2683 36.5231 55.2683C36.687 55.2683 36.8443 55.3335 36.9602 55.4494C37.0761 55.5653 37.1412 55.7225 37.1412 55.8865V56.8079C37.1412 56.9719 37.0761 57.1291 36.9602 57.245C36.8443 57.3609 36.687 57.4261 36.5231 57.4261ZM34.5908 57.4261C34.4269 57.4261 34.2696 57.3609 34.1537 57.245C34.0378 57.1291 33.9727 56.9719 33.9727 56.8079V55.8865C33.9727 55.7225 34.0378 55.5653 34.1537 55.4494C34.2696 55.3335 34.4269 55.2683 34.5908 55.2683C34.7547 55.2683 34.912 55.3335 35.0279 55.4494C35.1438 55.5653 35.2089 55.7225 35.2089 55.8865V56.8079C35.2089 56.9719 35.1438 57.1291 35.0279 57.245C34.912 57.3609 34.7547 57.4261 34.5908 57.4261Z" fill="#DABA68" stroke="#DABA68" stroke-width="0.219783"/>
<path d="M35.873 59.7465C31.5316 59.7465 28 56.2149 28 51.8735C28 47.5321 31.5316 44 35.873 44C40.2145 44 43.7461 47.5316 43.7461 51.873C43.7461 56.2145 40.2145 59.7465 35.873 59.7465ZM35.873 45.2363C32.2137 45.2363 29.2363 48.2137 29.2363 51.873C29.2363 55.5324 32.2137 58.5102 35.873 58.5102C39.5324 58.5102 42.5098 55.5329 42.5098 51.8735C42.5098 48.2141 39.5324 45.2363 35.873 45.2363Z" fill="#DABA68" stroke="#DABA68" stroke-width="0.219783"/>
<path d="M49.437 64H22.563C21.8833 64 21.2313 63.7092 20.7507 63.1915C20.27 62.6738 20 61.9717 20 61.2397V42.7603C20 42.0283 20.27 41.3262 20.7507 40.8085C21.2313 40.2908 21.8833 40 22.563 40H49.437C50.1167 40 50.7687 40.2908 51.2493 40.8085C51.73 41.3262 52 42.0283 52 42.7603V61.2397C52 61.9717 51.73 62.6738 51.2493 63.1915C50.7687 63.7092 50.1167 64 49.437 64ZM22.563 42.3099C22.4521 42.3099 22.3457 42.3574 22.2673 42.4418C22.1888 42.5263 22.1448 42.6409 22.1448 42.7603V61.2397C22.1448 61.3591 22.1888 61.4737 22.2673 61.5582C22.3457 61.6426 22.4521 61.6901 22.563 61.6901H49.437C49.4919 61.6901 49.5463 61.6784 49.597 61.6558C49.6478 61.6332 49.6939 61.6 49.7327 61.5582C49.7716 61.5163 49.8024 61.4667 49.8234 61.412C49.8444 61.3574 49.8552 61.2988 49.8552 61.2397V42.7603C49.8552 42.7012 49.8444 42.6426 49.8234 42.588C49.8024 42.5333 49.7716 42.4837 49.7327 42.4418C49.6939 42.4 49.6478 42.3668 49.597 42.3442C49.5463 42.3216 49.4919 42.3099 49.437 42.3099H22.563Z" fill="#DABA68" stroke="#DABA68" stroke-width="0.3"/>
<path d="M46.8177 42.2402H25.1823C24.8687 42.2402 24.568 42.1207 24.3463 41.9081C24.1246 41.6954 24 41.4069 24 41.1062V32.5103C24 29.4576 25.2643 26.5299 27.5147 24.3713C29.7652 22.2127 32.8174 21 36 21C39.1826 21 42.2348 22.2127 44.4853 24.3713C46.7357 26.5299 48 29.4576 48 32.5103V41.1062C48 41.4069 47.8754 41.6954 47.6537 41.9081C47.432 42.1207 47.1313 42.2402 46.8177 42.2402ZM26.3645 39.9722H45.6355V32.5103C45.6355 30.0591 44.6203 27.7083 42.8133 25.975C41.0063 24.2418 38.5555 23.268 36 23.268C33.4445 23.268 30.9937 24.2418 29.1867 25.975C27.3797 27.7083 26.3645 30.0591 26.3645 32.5103V39.9722Z" fill="#DABA68" stroke="#DABA68" stroke-width="0.3"/>
</svg>
