<svg width="58" height="58" viewBox="0 0 58 58" fill="none" xmlns="http://www.w3.org/2000/svg">
<path fill-rule="evenodd" clip-rule="evenodd" d="M51.9577 7.25004C51.9575 5.64768 51.3212 4.11094 50.1887 2.97737C49.0551 1.84486 47.5184 1.20861 45.916 1.20837H21.3349C19.7325 1.20861 18.1958 1.84486 17.0622 2.97737L7.81002 12.2296C6.6775 13.3631 6.04125 14.8999 6.04102 16.5023V50.75C6.04102 52.3523 6.67781 53.8893 7.81002 55.0227C8.94358 56.1552 10.4803 56.7915 12.0827 56.7917H45.916C47.5184 56.7917 49.0551 56.1552 50.1881 55.0222C51.3212 53.8891 51.9577 52.3524 51.9577 50.75V7.25004ZM8.54589 15.7084C8.48733 15.9689 8.45775 16.2352 8.45768 16.5023V50.75C8.45768 51.7119 8.83952 52.6338 9.51981 53.3129C9.85618 53.6498 10.2557 53.917 10.6955 54.0992C11.1352 54.2815 11.6066 54.3752 12.0827 54.375H45.916C46.8774 54.375 47.7995 53.9931 48.4793 53.3133C49.1591 52.6335 49.541 51.7115 49.541 50.75V7.25004C49.541 6.28821 49.1592 5.36625 48.4789 4.68717C48.1425 4.35032 47.743 4.08312 47.3032 3.90086C46.8635 3.71861 46.3921 3.62488 45.916 3.62504H21.3349C21.0678 3.62511 20.8016 3.65469 20.541 3.71325V9.66671C20.5408 11.2691 19.9045 12.8058 18.772 13.9394C17.6385 15.0719 16.1017 15.7081 14.4993 15.7084H8.54589ZM18.1243 5.33362L10.1663 13.2917H14.4993C15.4612 13.2917 16.3831 12.9099 17.0622 12.2296C17.3991 11.8932 17.6663 11.4937 17.8485 11.0539C18.0308 10.6142 18.1245 10.1428 18.1243 9.66671V5.33362Z" fill="#DABA68" stroke="#DABA68" stroke-width="0.1"/>
<path fill-rule="evenodd" clip-rule="evenodd" d="M16.9154 47.125H30.5366C30.857 47.125 31.1644 46.9977 31.391 46.7711C31.6176 46.5445 31.7449 46.2372 31.7449 45.9167C31.7449 45.5962 31.6176 45.2889 31.391 45.0623C31.1644 44.8357 30.857 44.7084 30.5366 44.7084H16.9154C16.5949 44.7084 16.2876 44.8357 16.0609 45.0623C15.8343 45.2889 15.707 45.5962 15.707 45.9167C15.707 46.2372 15.8343 46.5445 16.0609 46.7711C16.2876 46.9977 16.5949 47.125 16.9154 47.125ZM16.9154 39.875H41.082C41.4025 39.875 41.7098 39.7477 41.9365 39.5211C42.1631 39.2945 42.2904 38.9872 42.2904 38.6667C42.2904 38.3462 42.1631 38.0389 41.9365 37.8123C41.7098 37.5857 41.4025 37.4584 41.082 37.4584H16.9154C16.5949 37.4584 16.2876 37.5857 16.0609 37.8123C15.8343 38.0389 15.707 38.3462 15.707 38.6667C15.707 38.9872 15.8343 39.2945 16.0609 39.5211C16.2876 39.7477 16.5949 39.875 16.9154 39.875ZM16.9154 32.625H41.082C41.4025 32.625 41.7098 32.4977 41.9365 32.2711C42.1631 32.0445 42.2904 31.7372 42.2904 31.4167C42.2904 31.0962 42.1631 30.7889 41.9365 30.5623C41.7098 30.3357 41.4025 30.2084 41.082 30.2084H16.9154C16.5949 30.2084 16.2876 30.3357 16.0609 30.5623C15.8343 30.7889 15.707 31.0962 15.707 31.4167C15.707 31.7372 15.8343 32.0445 16.0609 32.2711C16.2876 32.4977 16.5949 32.625 16.9154 32.625ZM16.9154 25.375H41.082C41.4025 25.375 41.7098 25.2477 41.9365 25.0211C42.1631 24.7945 42.2904 24.4872 42.2904 24.1667C42.2904 23.8462 42.1631 23.5389 41.9365 23.3123C41.7098 23.0857 41.4025 22.9584 41.082 22.9584H16.9154C16.5949 22.9584 16.2876 23.0857 16.0609 23.3123C15.8343 23.5389 15.707 23.8462 15.707 24.1667C15.707 24.4872 15.8343 24.7945 16.0609 25.0211C16.2876 25.2477 16.5949 25.375 16.9154 25.375Z" fill="#DABA68" stroke="#DABA68" stroke-width="0.1"/>
</svg>
