<svg width="66" height="66" viewBox="0 0 66 66" fill="none" xmlns="http://www.w3.org/2000/svg">
<path d="M53.0675 47.6449H45.4151C45.1785 47.6449 44.9517 47.5509 44.7844 47.3837C44.6171 47.2164 44.5232 46.9895 44.5232 46.753C44.5232 46.5164 44.6171 46.2896 44.7844 46.1223C44.9517 45.9551 45.1785 45.8611 45.4151 45.8611H53.0675C55.4327 45.8575 57.7089 44.9592 59.439 43.3464C61.1691 41.7337 62.2248 39.5261 62.3942 37.167C62.5636 34.8079 61.8341 32.472 60.3522 30.6287C58.8703 28.7853 56.7457 27.5709 54.4053 27.2295C54.2762 27.2115 54.1526 27.1655 54.0432 27.0946C53.9338 27.0237 53.8412 26.9297 53.7721 26.8192C53.7034 26.7084 53.6598 26.5839 53.6444 26.4545C53.629 26.3251 53.6421 26.1938 53.6829 26.07C54.3639 24.0584 54.5563 21.9135 54.244 19.8128C53.9317 17.7121 53.1238 15.716 51.887 13.9894C50.6503 12.2629 49.0203 10.8556 47.1319 9.88394C45.2434 8.91228 43.1507 8.40417 41.027 8.40164C38.3296 8.38137 35.6901 9.18295 33.4595 10.6997C31.229 12.2165 29.5132 14.3765 28.5405 16.8924C28.496 17.0065 28.4284 17.1102 28.3421 17.197C28.2558 17.2838 28.1525 17.3519 28.0387 17.3971C27.925 17.4423 27.8031 17.4636 27.6807 17.4596C27.5584 17.4556 27.4381 17.4265 27.3275 17.3741C26.0353 16.7557 24.6216 16.4327 23.1891 16.4287C20.5871 16.4287 18.0917 17.4623 16.2518 19.3022C14.4119 21.1421 13.3783 23.6375 13.3783 26.2395C13.3783 26.476 13.2843 26.7029 13.1171 26.8701C12.9498 27.0374 12.723 27.1314 12.4864 27.1314C10.0027 27.1858 7.64232 28.2246 5.92453 30.0193C4.20675 31.8141 3.27227 34.2177 3.32668 36.7014C3.38109 39.1851 4.41991 41.5455 6.21464 43.2632C8.00936 44.981 10.413 45.9155 12.8967 45.8611H20.5491C20.7857 45.8611 21.0125 45.9551 21.1798 46.1223C21.347 46.2896 21.441 46.5164 21.441 46.753C21.441 46.9895 21.347 47.2164 21.1798 47.3837C21.0125 47.5509 20.7857 47.6449 20.5491 47.6449H12.9324C10.0798 47.6658 7.32799 46.5916 5.24399 44.6437C3.15998 42.6959 1.90264 40.0227 1.73111 37.1753C1.55958 34.3279 2.48693 31.5231 4.32203 29.3392C6.15712 27.1552 8.76012 25.7584 11.5945 25.4368C11.7981 22.5029 13.109 19.756 15.2617 17.7523C17.4145 15.7486 20.2482 14.6378 23.1891 14.6449C24.588 14.6423 25.9756 14.8962 27.2829 15.3941C28.8889 11.9718 31.7155 9.27289 35.2083 7.82664C38.7011 6.38039 42.6082 6.2911 46.1634 7.5763C49.7186 8.8615 52.6655 11.4285 54.4262 14.7738C56.1868 18.1192 56.6343 22.0016 55.6807 25.6597C58.3322 26.3007 60.6566 27.8916 62.214 30.1311C63.7714 32.3706 64.4537 35.1034 64.1317 37.8121C63.8098 40.5209 62.5059 43.0176 60.4669 44.8296C58.4279 46.6417 55.7953 47.6433 53.0675 47.6449Z" fill="#DABA68" stroke="#DABA68" stroke-width="0.5"/>
<path d="M44.1758 59.3821H21.825C21.2596 59.3821 20.7175 59.1576 20.3177 58.7578C19.9179 58.358 19.6934 57.8159 19.6934 57.2505V42.9803C19.6934 42.4149 19.9179 41.8727 20.3177 41.473C20.7175 41.0732 21.2596 40.8486 21.825 40.8486H44.1758C44.7411 40.8486 45.2833 41.0732 45.6831 41.473C46.0828 41.8727 46.3074 42.4149 46.3074 42.9803V57.2505C46.3074 57.8159 46.0828 58.358 45.6831 58.7578C45.2833 59.1576 44.7411 59.3821 44.1758 59.3821ZM21.825 42.6324C21.7327 42.6324 21.6443 42.6691 21.579 42.7343C21.5138 42.7995 21.4771 42.888 21.4771 42.9803V57.2505C21.4771 57.3428 21.5138 57.4313 21.579 57.4965C21.6443 57.5617 21.7327 57.5984 21.825 57.5984H44.1758C44.2215 57.5984 44.2667 57.5894 44.3089 57.5719C44.3511 57.5544 44.3895 57.5288 44.4218 57.4965C44.4541 57.4642 44.4797 57.4258 44.4972 57.3836C44.5146 57.3414 44.5236 57.2962 44.5236 57.2505V42.9803C44.5236 42.9346 44.5146 42.8893 44.4972 42.8471C44.4797 42.8049 44.4541 42.7666 44.4218 42.7343C44.3895 42.702 44.3511 42.6764 44.3089 42.6589C44.2667 42.6414 44.2215 42.6324 44.1758 42.6324H21.825Z" fill="#DABA68" stroke="#DABA68" stroke-width="0.3"/>
<path d="M41.1608 42.6325H24.8392C24.6026 42.6325 24.3758 42.5385 24.2085 42.3713C24.0412 42.204 23.9473 41.9772 23.9473 41.7406V34.9801C23.9473 32.5791 24.901 30.2766 26.5987 28.5788C28.2965 26.8811 30.599 25.9274 33 25.9274C35.4009 25.9274 37.7035 26.8811 39.4012 28.5788C41.0989 30.2766 42.0527 32.5791 42.0527 34.9801V41.7406C42.0527 41.9772 41.9587 42.204 41.7914 42.3713C41.6242 42.5385 41.3973 42.6325 41.1608 42.6325ZM25.731 40.8487H40.2689V34.9801C40.2689 33.0522 39.5031 31.2034 38.1399 29.8402C36.7767 28.477 34.9278 27.7112 33 27.7112C31.0721 27.7112 29.2233 28.477 27.8601 29.8402C26.4969 31.2034 25.731 33.0522 25.731 34.9801V40.8487ZM33 51.8814C32.4104 51.8814 31.8341 51.7065 31.344 51.3788C30.854 51.051 30.4722 50.5853 30.247 50.0404C30.0218 49.4956 29.9633 48.8962 30.079 48.3181C30.1946 47.74 30.4792 47.2092 30.8967 46.7929C31.3142 46.3767 31.8459 46.0937 32.4243 45.9797C33.0027 45.8658 33.602 45.9261 34.1461 46.1529C34.6903 46.3797 35.1549 46.7629 35.4812 47.254C35.8074 47.7451 35.9807 48.3219 35.9789 48.9114C35.9765 49.6999 35.6616 50.4553 35.1032 51.0121C34.5448 51.5688 33.7885 51.8814 33 51.8814ZM33 47.7163C32.7636 47.7163 32.5325 47.7864 32.336 47.9177C32.1394 48.049 31.9863 48.2357 31.8958 48.4541C31.8054 48.6724 31.7817 48.9127 31.8278 49.1446C31.8739 49.3764 31.9877 49.5894 32.1549 49.7565C32.322 49.9237 32.535 50.0375 32.7668 50.0836C32.9986 50.1297 33.2389 50.106 33.4573 50.0156C33.6757 49.9251 33.8624 49.7719 33.9937 49.5754C34.125 49.3789 34.1951 49.1478 34.1951 48.9114C34.1951 48.7545 34.1642 48.5991 34.1041 48.4541C34.0441 48.3091 33.956 48.1773 33.8451 48.0663C33.7341 47.9554 33.6023 47.8673 33.4573 47.8073C33.3123 47.7472 33.1569 47.7163 33 47.7163Z" fill="#DABA68" stroke="#DABA68" stroke-width="0.3"/>
<path d="M32.9993 54.2983C32.7628 54.2983 32.5359 54.2044 32.3687 54.0371C32.2014 53.8699 32.1074 53.643 32.1074 53.4065V50.9894C32.1074 50.7529 32.2014 50.526 32.3687 50.3588C32.5359 50.1915 32.7628 50.0975 32.9993 50.0975C33.2359 50.0975 33.4627 50.1915 33.63 50.3588C33.7972 50.526 33.8912 50.7529 33.8912 50.9894V53.4065C33.8912 53.643 33.7972 53.8699 33.63 54.0371C33.4627 54.2044 33.2359 54.2983 32.9993 54.2983Z" fill="#DABA68" stroke="#DABA68" stroke-width="0.5"/>
</svg>
