<svg width="59" height="61" viewBox="0 0 59 61" fill="none" xmlns="http://www.w3.org/2000/svg">
<path fill-rule="evenodd" clip-rule="evenodd" d="M8.05227 11.7501L29.5011 2.73648L50.9499 11.7501V36.7492C50.9499 43.996 41.5999 54.9341 29.5011 58.3077C17.4027 54.9342 8.05227 43.9961 8.05227 36.7494V11.7501ZM29.2624 60.1661C29.4188 60.2077 29.5833 60.2077 29.7397 60.1661C35.8159 58.5268 41.6412 54.9886 46.1409 50.2015C50.3063 45.7718 52.7932 40.7424 52.7932 36.7494V11.1318C52.7932 10.9487 52.7394 10.7697 52.6386 10.6174C52.5379 10.465 52.3946 10.346 52.2268 10.2754L29.856 0.874358C29.7436 0.826921 29.623 0.80249 29.5011 0.80249C29.3792 0.80249 29.2586 0.826921 29.1462 0.874358L6.77594 10.2754C6.60805 10.3459 6.46464 10.4649 6.36375 10.6172C6.26286 10.7696 6.20901 10.9487 6.20898 11.1318V36.7494C6.20898 40.7424 8.69586 45.7718 12.8612 50.2015C17.3609 54.9884 23.1862 58.5265 29.2624 60.1661Z" fill="#DABA68" stroke="#DABA68" stroke-width="0.4"/>
<path d="M38.8742 42.5394H20.1259C19.6517 42.5394 19.1969 42.3546 18.8616 42.0257C18.5263 41.6968 18.3379 41.2506 18.3379 40.7855V29.0434C18.3379 28.5782 18.5263 28.1321 18.8616 27.8032C19.1969 27.4742 19.6517 27.2894 20.1259 27.2894H38.8742C39.3484 27.2894 39.8032 27.4742 40.1385 27.8032C40.4738 28.1321 40.6622 28.5782 40.6622 29.0434V40.7855C40.6622 41.2506 40.4738 41.6968 40.1385 42.0257C39.8032 42.3546 39.3484 42.5394 38.8742 42.5394ZM20.1259 28.7572C20.0485 28.7572 19.9743 28.7873 19.9196 28.841C19.8649 28.8947 19.8342 28.9675 19.8342 29.0434V40.7855C19.8342 40.8614 19.8649 40.9342 19.9196 40.9878C19.9743 41.0415 20.0485 41.0717 20.1259 41.0717H38.8742C38.9125 41.0717 38.9504 41.0643 38.9858 41.0499C39.0212 41.0355 39.0534 41.0144 39.0805 40.9878C39.1076 40.9613 39.1291 40.9297 39.1437 40.895C39.1584 40.8603 39.1659 40.823 39.1659 40.7855V29.0434C39.1659 29.0058 39.1584 28.9686 39.1437 28.9339C39.1291 28.8991 39.1076 28.8676 39.0805 28.841C39.0534 28.8144 39.0212 28.7934 38.9858 28.779C38.9504 28.7646 38.9125 28.7572 38.8742 28.7572H20.1259Z" fill="#DABA68" stroke="#DABA68" stroke-width="0.3"/>
<path d="M36.6878 28.3958H22.3129C22.1045 28.3958 21.9047 28.3173 21.7574 28.1777C21.6101 28.038 21.5273 27.8486 21.5273 27.6511V22.0062C21.5273 20.0015 22.3674 18.0789 23.8626 16.6613C25.3578 15.2438 27.3858 14.4474 29.5003 14.4474C31.6149 14.4474 33.6428 15.2438 35.1381 16.6613C36.6333 18.0789 37.4733 20.0015 37.4733 22.0062V27.6511C37.4733 27.8486 37.3905 28.038 37.2432 28.1777C37.0959 28.3173 36.8961 28.3958 36.6878 28.3958ZM23.0984 26.9064H35.9023V22.0062C35.9023 20.3965 35.2278 18.8527 34.0272 17.7145C32.8266 16.5763 31.1982 15.9368 29.5003 15.9368C27.8024 15.9368 26.1741 16.5763 24.9735 17.7145C23.7729 18.8527 23.0984 20.3965 23.0984 22.0062V26.9064ZM29.5003 36.1184C28.9811 36.1184 28.4735 35.9724 28.0419 35.6987C27.6103 35.4251 27.274 35.0362 27.0757 34.5812C26.8773 34.1263 26.8258 33.6258 26.9277 33.1431C27.0296 32.6604 27.2802 32.2172 27.6479 31.8697C28.0156 31.5221 28.4839 31.2858 28.9933 31.1907C29.5028 31.0955 30.0305 31.1459 30.5098 31.3353C30.9891 31.5247 31.3983 31.8446 31.6856 32.2546C31.9729 32.6647 32.1255 33.1463 32.1239 33.6386C32.1219 34.2969 31.8445 34.9277 31.3527 35.3926C30.8609 35.8574 30.1948 36.1184 29.5003 36.1184ZM29.5003 32.6406C29.2921 32.6406 29.0886 32.6992 28.9155 32.8088C28.7424 32.9185 28.6075 33.0743 28.5278 33.2567C28.4482 33.439 28.4273 33.6397 28.468 33.8332C28.5086 34.0268 28.6088 34.2046 28.756 34.3442C28.9032 34.4837 29.0908 34.5788 29.295 34.6173C29.4991 34.6558 29.7108 34.636 29.9031 34.5605C30.0955 34.485 30.2599 34.3571 30.3755 34.193C30.4912 34.0289 30.5529 33.8359 30.5529 33.6386C30.5529 33.5075 30.5257 33.3777 30.4728 33.2567C30.4199 33.1356 30.3424 33.0256 30.2446 32.9329C30.1469 32.8403 30.0308 32.7668 29.9031 32.7166C29.7754 32.6665 29.6385 32.6406 29.5003 32.6406Z" fill="#DABA68" stroke="#DABA68" stroke-width="0.3"/>
<path d="M29.5004 38.5263C29.289 38.5263 29.0862 38.4545 28.9366 38.3267C28.7871 38.1988 28.7031 38.0255 28.7031 37.8447V35.9974C28.7031 35.8167 28.7871 35.6433 28.9366 35.5154C29.0862 35.3876 29.289 35.3158 29.5004 35.3158C29.7119 35.3158 29.9147 35.3876 30.0642 35.5154C30.2137 35.6433 30.2977 35.8167 30.2977 35.9974V37.8447C30.2977 38.0255 30.2137 38.1988 30.0642 38.3267C29.9147 38.4545 29.7119 38.5263 29.5004 38.5263Z" fill="#DABA68" stroke="#DABA68" stroke-width="0.5"/>
</svg>
