<svg width="59" height="59" viewBox="0 0 59 59" fill="none" xmlns="http://www.w3.org/2000/svg">
<g clip-path="url(#clip0_406_348)">
<path fill-rule="evenodd" clip-rule="evenodd" d="M57.4869 46.2207V17.5567C57.4867 15.9729 56.8633 14.454 55.7536 13.3336C54.6429 12.2142 53.1372 11.5853 51.5672 11.5851H30.9878L30.2562 10.1089C29.7645 9.11696 29.0088 8.28273 28.0737 7.69968C27.1385 7.11663 26.0609 6.80778 24.9616 6.80774H8.94512C8.16773 6.80774 7.39795 6.9622 6.67974 7.2623C5.96152 7.56241 5.30894 8.00228 4.75924 8.5568C3.64907 9.6767 3.02539 11.1956 3.02539 12.7794V46.2207C3.02539 47.8045 3.64907 49.3234 4.75924 50.4433C5.86941 51.5632 7.37511 52.1924 8.94512 52.1924H51.5672C53.1372 52.1921 54.6429 51.5632 55.7536 50.4439C56.8633 49.3234 57.4867 47.8045 57.4869 46.2207ZM55.119 22.3341V46.2207C55.119 47.1714 54.7449 48.0827 54.0783 48.7539C53.7488 49.0868 53.3573 49.3509 52.9264 49.5311C52.4955 49.7112 52.0336 49.8039 51.5672 49.8037H8.94512C8.00312 49.8037 7.09969 49.4262 6.43359 48.7543C5.76749 48.0823 5.39328 47.171 5.39328 46.2207V12.7794C5.39328 11.8291 5.76749 10.9178 6.43359 10.2458C7.09969 9.5739 8.00312 9.1964 8.94512 9.1964H24.9616C25.6211 9.19643 26.2676 9.38168 26.8286 9.73143C27.3896 10.0812 27.8431 10.5816 28.1381 11.1766L31.5656 18.0906C31.6636 18.2891 31.8146 18.4561 32.0016 18.5728C32.1886 18.6895 32.4042 18.7512 32.6241 18.7511H51.5672C52.5096 18.7511 53.413 19.1285 54.0783 19.8009C54.7449 20.4721 55.119 21.3834 55.119 22.3341ZM32.1718 13.9737L33.3557 16.3624H51.5672C52.8553 16.3624 54.1008 16.7864 55.119 17.5567C55.119 16.606 54.7449 15.6948 54.0783 15.0235C53.7488 14.6906 53.3573 14.4265 52.9264 14.2464C52.4955 14.0662 52.0336 13.9736 51.5672 13.9737H32.1718Z" fill="#DABA68"/>
<path d="M48.6162 59.2091H26.3305C25.7668 59.2091 25.2262 58.9852 24.8276 58.5866C24.429 58.188 24.2051 57.6474 24.2051 57.0837V42.855C24.2051 42.2913 24.429 41.7507 24.8276 41.3521C25.2262 40.9535 25.7668 40.7296 26.3305 40.7296H48.6162C49.1799 40.7296 49.7205 40.9535 50.1191 41.3521C50.5177 41.7507 50.7416 42.2913 50.7416 42.855V57.0837C50.7416 57.6474 50.5177 58.188 50.1191 58.5866C49.7205 58.9852 49.1799 59.2091 48.6162 59.2091ZM26.3305 42.5082C26.2385 42.5082 26.1503 42.5447 26.0852 42.6098C26.0202 42.6748 25.9837 42.763 25.9837 42.855V57.0837C25.9837 57.1757 26.0202 57.2639 26.0852 57.329C26.1503 57.394 26.2385 57.4305 26.3305 57.4305H48.6162C48.6617 57.4305 48.7068 57.4216 48.7489 57.4041C48.791 57.3867 48.8292 57.3612 48.8614 57.329C48.8936 57.2968 48.9192 57.2585 48.9366 57.2164C48.954 57.1744 48.963 57.1293 48.963 57.0837V42.855C48.963 42.8095 48.954 42.7644 48.9366 42.7223C48.9192 42.6802 48.8936 42.642 48.8614 42.6098C48.8292 42.5776 48.791 42.552 48.7489 42.5346C48.7068 42.5172 48.6617 42.5082 48.6162 42.5082H26.3305Z" fill="#DABA68"/>
<path d="M26.3305 42.5082C26.2385 42.5082 26.1503 42.5447 26.0852 42.6098C26.0202 42.6748 25.9837 42.763 25.9837 42.855V57.0837C25.9837 57.1757 26.0202 57.2639 26.0852 57.329C26.1503 57.394 26.2385 57.4305 26.3305 57.4305H48.6162C48.6617 57.4305 48.7068 57.4216 48.7489 57.4041C48.791 57.3867 48.8292 57.3612 48.8614 57.329C48.8936 57.2968 48.9192 57.2585 48.9366 57.2164C48.954 57.1744 48.963 57.1293 48.963 57.0837V42.855C48.963 42.8095 48.954 42.7644 48.9366 42.7223C48.9192 42.6802 48.8936 42.642 48.8614 42.6098C48.8292 42.5776 48.791 42.552 48.7489 42.5346C48.7068 42.5172 48.6617 42.5082 48.6162 42.5082H26.3305Z" fill="#0D221B"/>
<path d="M48.6162 59.2091H26.3305C25.7668 59.2091 25.2262 58.9852 24.8276 58.5866C24.429 58.188 24.2051 57.6474 24.2051 57.0837V42.855C24.2051 42.2913 24.429 41.7507 24.8276 41.3521C25.2262 40.9535 25.7668 40.7296 26.3305 40.7296H48.6162C49.1799 40.7296 49.7205 40.9535 50.1191 41.3521C50.5177 41.7507 50.7416 42.2913 50.7416 42.855V57.0837C50.7416 57.6474 50.5177 58.188 50.1191 58.5866C49.7205 58.9852 49.1799 59.2091 48.6162 59.2091ZM26.3305 42.5082C26.2385 42.5082 26.1503 42.5447 26.0852 42.6098C26.0202 42.6748 25.9837 42.763 25.9837 42.855V57.0837C25.9837 57.1757 26.0202 57.2639 26.0852 57.329C26.1503 57.394 26.2385 57.4305 26.3305 57.4305H48.6162C48.6617 57.4305 48.7068 57.4216 48.7489 57.4041C48.791 57.3867 48.8292 57.3612 48.8614 57.329C48.8936 57.2968 48.9192 57.2585 48.9366 57.2164C48.954 57.1744 48.963 57.1293 48.963 57.0837V42.855C48.963 42.8095 48.954 42.7644 48.9366 42.7223C48.9192 42.6802 48.8936 42.642 48.8614 42.6098C48.8292 42.5776 48.791 42.552 48.7489 42.5346C48.7068 42.5172 48.6617 42.5082 48.6162 42.5082H26.3305Z" stroke="#DABA68" stroke-width="0.3"/>
<path d="M26.3305 42.5082C26.2385 42.5082 26.1503 42.5447 26.0852 42.6098C26.0202 42.6748 25.9837 42.763 25.9837 42.855V57.0837C25.9837 57.1757 26.0202 57.2639 26.0852 57.329C26.1503 57.394 26.2385 57.4305 26.3305 57.4305H48.6162C48.6617 57.4305 48.7068 57.4216 48.7489 57.4041C48.791 57.3867 48.8292 57.3612 48.8614 57.329C48.8936 57.2968 48.9192 57.2585 48.9366 57.2164C48.954 57.1744 48.963 57.1293 48.963 57.0837V42.855C48.963 42.8095 48.954 42.7644 48.9366 42.7223C48.9192 42.6802 48.8936 42.642 48.8614 42.6098C48.8292 42.5776 48.791 42.552 48.7489 42.5346C48.7068 42.5172 48.6617 42.5082 48.6162 42.5082H26.3305Z" stroke="#DABA68" stroke-width="0.3"/>
<path d="M45.6106 42.5081H29.3366C29.1007 42.5081 28.8745 42.4145 28.7077 42.2477C28.541 42.0809 28.4473 41.8547 28.4473 41.6189V34.878C28.4473 32.4841 29.3983 30.1882 31.091 28.4954C32.7838 26.8027 35.0797 25.8517 37.4736 25.8517C39.8675 25.8517 42.1634 26.8027 43.8562 28.4954C45.5489 30.1882 46.4999 32.4841 46.4999 34.878V41.6189C46.4999 41.8547 46.4062 42.0809 46.2394 42.2477C46.0727 42.4145 45.8465 42.5081 45.6106 42.5081ZM30.2259 40.7296H44.7213V34.878C44.7213 32.9558 43.9577 31.1123 42.5985 29.7531C41.2393 28.3939 39.3958 27.6303 37.4736 27.6303C35.5514 27.6303 33.7079 28.3939 32.3487 29.7531C30.9895 31.1123 30.2259 32.9558 30.2259 34.878V40.7296ZM37.4736 51.7301C36.8858 51.7301 36.3111 51.5557 35.8225 51.2289C35.3338 50.9021 34.9532 50.4377 34.7286 49.8945C34.5041 49.3512 34.4458 48.7535 34.5611 48.1771C34.6764 47.6007 34.9602 47.0715 35.3765 46.6565C35.7928 46.2414 36.3228 45.9592 36.8996 45.8456C37.4764 45.732 38.0738 45.7921 38.6164 46.0183C39.159 46.2445 39.6223 46.6266 39.9476 47.1162C40.2729 47.6058 40.4456 48.1809 40.4438 48.7688C40.4415 49.555 40.1275 50.3082 39.5707 50.8633C39.014 51.4184 38.2598 51.7301 37.4736 51.7301ZM37.4736 47.5771C37.2379 47.5771 37.0075 47.647 36.8115 47.7779C36.6156 47.9089 36.4628 48.095 36.3726 48.3127C36.2825 48.5305 36.2589 48.7701 36.3048 49.0012C36.3508 49.2324 36.4643 49.4447 36.631 49.6114C36.7976 49.778 37.01 49.8915 37.2411 49.9375C37.4723 49.9835 37.7119 49.9599 37.9296 49.8697C38.1474 49.7795 38.3335 49.6268 38.4644 49.4308C38.5954 49.2348 38.6652 49.0045 38.6652 48.7688C38.6652 48.6123 38.6344 48.4573 38.5745 48.3127C38.5146 48.1682 38.4269 48.0368 38.3162 47.9261C38.2056 47.8155 38.0742 47.7277 37.9296 47.6678C37.785 47.6079 37.6301 47.5771 37.4736 47.5771Z" fill="#DABA68" stroke="#DABA68" stroke-width="0.3"/>
<path d="M37.4752 54.1402C37.2394 54.1402 37.0132 54.0465 36.8464 53.8798C36.6796 53.713 36.5859 53.4868 36.5859 53.2509V50.841C36.5859 50.6051 36.6796 50.3789 36.8464 50.2121C37.0132 50.0454 37.2394 49.9517 37.4752 49.9517C37.7111 49.9517 37.9373 50.0454 38.1041 50.2121C38.2708 50.3789 38.3645 50.6051 38.3645 50.841V53.2509C38.3645 53.4868 38.2708 53.713 38.1041 53.8798C37.9373 54.0465 37.7111 54.1402 37.4752 54.1402Z" fill="#DABA68" stroke="#DABA68" stroke-width="0.5"/>
</g>
<defs>
<clipPath id="clip0_406_348">
<rect width="59" height="59" fill="white"/>
</clipPath>
</defs>
</svg>
