<svg width="197" height="39" viewBox="0 0 197 39" fill="none" xmlns="http://www.w3.org/2000/svg">
<g clip-path="url(#clip0_406_185)">
<path d="M73.2305 2.31949H75.3346L80.0997 11.3511H80.2028L84.8751 2.31949H86.938V14.0913H84.8751V4.44396H84.8132L79.7903 14.0913H79.3674L74.2928 4.5158H74.1587V14.0913H73.2305V2.31949Z" fill="white"/>
<path d="M90.4258 2.31949H92.4886V14.0913H90.4258V2.31949Z" fill="white"/>
<path d="M95.983 2.31949H100.057C101.315 2.31949 102.388 2.43238 103.296 2.65817C104.203 2.88396 104.956 3.24317 105.554 3.74607C106.246 4.31054 106.761 4.96738 107.102 5.69607C107.452 6.43502 107.628 7.23554 107.628 8.09765C107.628 8.92896 107.473 9.70896 107.153 10.4376C106.844 11.1663 106.39 11.8026 105.792 12.3466C105.193 12.8803 104.451 13.3113 103.564 13.6295C102.687 13.9476 101.676 14.1016 100.542 14.1016H95.9727V2.31949H95.983ZM98.0355 13.2292H100.222C100.913 13.2292 101.563 13.1163 102.171 12.9008C102.78 12.6853 103.306 12.3569 103.76 11.9258C104.214 11.4948 104.575 10.9611 104.832 10.335C105.101 9.6987 105.235 8.97002 105.235 8.1387C105.235 7.41002 105.111 6.74291 104.863 6.13738C104.616 5.53186 104.276 5.00844 103.832 4.56712C103.389 4.1258 102.862 3.78712 102.244 3.55107C101.635 3.30475 100.965 3.19186 100.243 3.19186H98.0458V13.2292H98.0355Z" fill="white"/>
<path d="M110.566 2.31949H114.651C115.909 2.31949 116.982 2.43238 117.889 2.65817C118.797 2.88396 119.55 3.24317 120.148 3.74607C120.839 4.31054 121.355 4.96738 121.695 5.69607C122.046 6.43502 122.221 7.23554 122.221 8.09765C122.221 8.92896 122.067 9.70896 121.747 10.4376C121.438 11.1663 120.984 11.8026 120.385 12.3466C119.787 12.8803 119.045 13.3113 118.158 13.6295C117.281 13.9476 116.27 14.1016 115.136 14.1016H110.566V2.31949ZM112.619 13.2292H114.806C115.497 13.2292 116.146 13.1163 116.755 12.9008C117.363 12.6853 117.889 12.3569 118.343 11.9258C118.797 11.4948 119.158 10.9611 119.416 10.335C119.684 9.6987 119.818 8.97002 119.818 8.1387C119.818 7.41002 119.694 6.74291 119.447 6.13738C119.199 5.53186 118.859 5.00844 118.415 4.56712C117.972 4.1258 117.446 3.78712 116.827 3.55107C116.219 3.30475 115.548 3.19186 114.826 3.19186H112.629V13.2292H112.619Z" fill="white"/>
<path d="M125.15 2.31949H127.213V13.3319H133.381V14.0913H125.161V2.31949H125.15Z" fill="white"/>
<path d="M144.925 2.31949V3.55107H138.479V7.28686H142.8V8.75449H138.479V13.3319H144.925V14.0913H136.416V2.31949H144.925Z" fill="white"/>
<path d="M160.064 2.31949V3.55107H153.618V7.28686H157.939V8.75449H153.618V13.3319H160.064V14.0913H151.555V2.31949H160.064Z" fill="white"/>
<path d="M168.482 2.05264L174.237 14.0913H172.143L170.276 10.1708H165.027L163.098 14.0913H162.066L167.966 2.05264H168.482ZM165.388 9.40106H169.905L167.677 4.74159L165.388 9.40106Z" fill="white"/>
<path d="M180.115 13.6192C180.414 13.6192 180.713 13.5782 181.012 13.5063C181.311 13.4242 181.569 13.3011 181.807 13.1471C182.044 12.9829 182.229 12.7982 182.363 12.5724C182.508 12.3466 182.58 12.0797 182.58 11.7719C182.58 11.4126 182.477 11.0945 182.281 10.8174C182.095 10.53 181.837 10.2734 181.528 10.0476C181.219 9.81159 180.858 9.5858 180.445 9.38054C180.043 9.17527 179.641 8.97001 179.218 8.75448C178.805 8.54922 178.393 8.33369 177.98 8.10791C177.578 7.88212 177.227 7.62554 176.907 7.34843C176.588 7.06106 176.34 6.75317 176.144 6.40422C175.948 6.05527 175.855 5.65501 175.855 5.20343C175.855 4.75185 175.938 4.34133 176.113 3.95133C176.288 3.57159 176.546 3.23291 176.887 2.9558C177.227 2.66843 177.64 2.45291 178.135 2.2887C178.64 2.13475 179.207 2.05264 179.847 2.05264C180.424 2.05264 180.94 2.11422 181.394 2.22712C181.848 2.35027 182.25 2.52475 182.59 2.75054C182.931 2.97633 183.23 3.2637 183.467 3.60238C183.704 3.94106 183.9 4.33106 184.045 4.77238L182.993 5.23422C182.869 4.87501 182.714 4.54659 182.518 4.24896C182.333 3.95133 182.106 3.68448 181.837 3.47922C181.569 3.2637 181.27 3.09948 180.92 2.98659C180.579 2.86343 180.187 2.81212 179.744 2.81212C179.352 2.81212 179.022 2.86343 178.733 2.97633C178.444 3.07896 178.197 3.21238 178.001 3.38685C177.815 3.55106 177.671 3.74606 177.567 3.95133C177.475 4.15659 177.433 4.37212 177.433 4.58764C177.433 4.89554 177.536 5.18291 177.732 5.43948C177.928 5.69606 178.186 5.93212 178.516 6.16817C178.846 6.39396 179.207 6.60948 179.62 6.82501C180.043 7.04054 180.466 7.25606 180.899 7.47159C181.332 7.68712 181.755 7.92317 182.168 8.15922C182.59 8.39527 182.962 8.65185 183.281 8.93922C183.612 9.21633 183.869 9.52422 184.065 9.86291C184.261 10.1913 184.364 10.5711 184.364 10.9816C184.364 11.4537 184.272 11.895 184.086 12.3055C183.9 12.7161 183.622 13.0753 183.251 13.3832C182.879 13.6808 182.425 13.9271 181.879 14.1016C181.332 14.2761 180.693 14.3684 179.971 14.3684C179.383 14.3684 178.857 14.3069 178.393 14.1837C177.928 14.0605 177.526 13.8758 177.165 13.6397C176.814 13.4037 176.515 13.1163 176.258 12.7776C176.01 12.439 175.804 12.0387 175.639 11.6076L176.742 11.1766C176.866 11.5563 177.041 11.9053 177.258 12.2029C177.475 12.5005 177.732 12.7674 178.021 12.9726C178.31 13.1779 178.63 13.3421 178.98 13.455C179.331 13.5679 179.713 13.6192 180.115 13.6192Z" fill="white"/>
<path d="M197 2.31949V3.07896H192.575V14.0913H190.522V3.07896H186.098V2.31949H197Z" fill="white"/>
<path d="M73.2305 18.9048H79.5324C80.5432 18.9048 81.4921 19.0074 82.3688 19.2126C83.2558 19.4179 84.0294 19.7361 84.6792 20.1466C85.3393 20.5674 85.855 21.0805 86.2263 21.7066C86.5976 22.3224 86.7832 23.0408 86.7832 23.8721C86.7832 24.7034 86.5976 25.4321 86.2263 26.0582C85.8653 26.674 85.3702 27.1871 84.7617 27.6079C84.1531 28.0287 83.4621 28.3366 82.6782 28.5419C81.9047 28.7369 81.1105 28.8395 80.2957 28.8395H77.6862V36.5471H73.2305V18.9048ZM77.6862 27.2487H79.1405C79.6459 27.2487 80.0894 27.1666 80.4607 26.9921C80.832 26.8074 81.1414 26.5713 81.389 26.2634C81.6365 25.9555 81.8221 25.5963 81.9459 25.1961C82.0697 24.7958 82.1316 24.375 82.1316 23.9337C82.1316 23.4 82.0491 22.9382 81.8737 22.5277C81.719 22.1171 81.4921 21.7784 81.2033 21.5013C80.9248 21.214 80.5948 20.9984 80.2131 20.8548C79.8418 20.7111 79.4396 20.629 78.9961 20.629H77.6656V27.2487H77.6862Z" fill="white"/>
<path d="M90.7129 18.9047H97.5099C98.6857 18.9047 99.7068 19.0279 100.573 19.2742C101.45 19.5103 102.182 19.8387 102.76 20.28C103.348 20.7008 103.791 21.2139 104.08 21.7989C104.369 22.3942 104.524 23.0305 104.524 23.7284C104.524 24.2313 104.42 24.7137 104.214 25.1653C104.018 25.6066 103.74 26.0171 103.379 26.4071C103.028 26.7766 102.584 27.1153 102.069 27.4129C101.563 27.7003 101.006 27.9363 100.388 28.1313L106.824 36.5779H102.007L95.9422 28.5931H95.1583V36.5779H90.7232V18.9047H90.7129ZM95.148 27.0229H96.1072C96.6538 27.0229 97.1489 26.951 97.6131 26.7971C98.0772 26.6534 98.4794 26.4379 98.8095 26.171C99.1499 25.8939 99.4077 25.5553 99.5934 25.155C99.7893 24.7547 99.8822 24.3031 99.8822 23.8003C99.8822 23.3281 99.81 22.8971 99.6553 22.5071C99.5109 22.1171 99.3149 21.7784 99.057 21.5013C98.7992 21.2139 98.4898 20.9984 98.1288 20.8342C97.7678 20.6802 97.3655 20.5981 96.9426 20.5981H95.148V27.0229Z" fill="white"/>
<path d="M109.771 18.9048H114.196V36.5574H109.771V18.9048Z" fill="white"/>
<path d="M122.501 18.9048L128.473 31.1076L134.022 18.9048C135.126 18.9048 135.755 18.9048 136.859 18.9048L128.731 36.814H126.668L117.922 18.9048H122.501Z" fill="white"/>
<path d="M146.1 18.5353L154.578 36.5574H150.05L147.781 31.744H140.757L138.385 36.5574H135.373L144.181 18.5353H146.1ZM141.592 30.1019H147.028L144.346 24.3955L141.592 30.1019Z" fill="white"/>
<path d="M161.869 27.7208C161.869 28.8702 162.044 29.876 162.405 30.7587C162.766 31.631 163.231 32.37 163.818 32.9755C164.406 33.5708 165.077 34.0121 165.84 34.3302C166.603 34.6381 167.397 34.7818 168.223 34.7818C168.852 34.7818 169.44 34.6792 169.986 34.4739C170.543 34.2584 171.049 33.971 171.523 33.6016C171.998 33.2321 172.451 32.8113 172.874 32.3392C173.287 31.8568 173.689 31.3539 174.071 30.8305L175.927 32.1545C175.525 32.7805 175.04 33.386 174.473 33.9608C173.916 34.5458 173.287 35.0589 172.575 35.5002C171.874 35.9416 171.111 36.3008 170.285 36.5676C169.46 36.8242 168.584 36.9576 167.655 36.9576C166.098 36.9576 164.664 36.7318 163.354 36.2905C162.044 35.8492 160.92 35.2231 159.971 34.4123C159.022 33.6016 158.28 32.6368 157.743 31.5079C157.207 30.3687 156.949 29.1063 156.949 27.7208C156.949 26.3763 157.207 25.1345 157.712 24.0055C158.218 22.8766 158.93 21.9016 159.847 21.0908C160.776 20.2697 161.869 19.6231 163.158 19.1613C164.448 18.6995 165.871 18.4737 167.418 18.4737C168.46 18.4737 169.409 18.5968 170.275 18.8431C171.141 19.0792 171.915 19.4076 172.616 19.8284C173.328 20.2492 173.957 20.7521 174.504 21.3371C175.061 21.9221 175.556 22.5584 175.979 23.2666L174.112 24.5392C173.73 24.0055 173.307 23.5129 172.864 23.0408C172.42 22.5687 171.946 22.1684 171.441 21.8195C170.935 21.4602 170.399 21.1831 169.842 20.9881C169.285 20.7829 168.697 20.6802 168.099 20.6802C167.274 20.6802 166.479 20.8342 165.727 21.1318C164.984 21.4397 164.324 21.8913 163.757 22.4866C163.189 23.0818 162.735 23.8105 162.395 24.6829C162.034 25.5552 161.869 26.5713 161.869 27.7208Z" fill="white"/>
<path d="M182.467 18.9047L188.408 26.8587L193.998 18.9047H197L189.934 28.9318V36.5574H185.499V29.1884L177.836 18.9047H182.467Z" fill="white"/>
<path fill-rule="evenodd" clip-rule="evenodd" d="M14.4395 8.37606V30.6239L58.7902 35.9211V3.07895L14.4395 8.37606ZM18.5651 12.084V26.916L54.6646 31.6834V7.31664L18.5651 12.084Z" fill="white"/>
<path d="M19.5969 39C30.4199 39 39.1937 30.2696 39.1937 19.5C39.1937 8.73045 30.4199 0 19.5969 0C8.77381 0 0 8.73045 0 19.5C0 30.2696 8.77381 39 19.5969 39Z" fill="white"/>
</g>
<defs>
<clipPath id="clip0_406_185">
<rect width="197" height="39" fill="white"/>
</clipPath>
</defs>
</svg>
